{
  "asset": {
    "generator": "Khronos glTF Blender I/O v1.6.16",
    "version": "2.0"
  },
  "scene": 0,
  "scenes": [
    {
      "name": "Scene",
      "nodes": [0, 1, 2]
    }
  ],
  "nodes": [
    {
      "mesh": 0,
      "name": "Cube",
      "rotation": [0, -0.6891448497772217, 0, 0.7246236205101013],
      "scale": [0.7038495540618896, 0.14523130655288696, 0.7038495540618896],
      "translation": [
        -0.11473734676837921, 0.1179046630859375, 0.11869127303361893
      ]
    },
    {
      "mesh": 1,
      "name": "Cube.001",
      "rotation": [0, -0.6891448497772217, 0, 0.7246236205101013],
      "scale": [0.6616528034210205, 0.18084180355072021, 0.6616528034210205],
      "translation": [
        -0.11296940594911575, 0.32106032967567444, 0.09548871964216232
      ]
    },
    {
      "mesh": 2,
      "name": "Cube.002",
      "rotation": [0, -0.6891448497772217, 0, 0.7246236205101013],
      "scale": [0.34686416387557983, 0.19635754823684692, 0.6215739846229553],
      "translation": [
        -0.13160191476345062, 0.4905332624912262, -0.21710950136184692
      ]
    }
  ],
  "materials": [
    {
      "doubleSided": true,
      "name": "Material",
      "pbrMetallicRoughness": {
        "baseColorTexture": {
          "index": 0
        },
        "metallicFactor": 0,
        "roughnessFactor": 0.4000000059604645
      }
    },
    {
      "doubleSided": true,
      "name": "Material.001",
      "pbrMetallicRoughness": {
        "baseColorTexture": {
          "index": 1
        },
        "metallicFactor": 0,
        "roughnessFactor": 0.5
      }
    },
    {
      "doubleSided": true,
      "name": "Material.002",
      "pbrMetallicRoughness": {
        "baseColorTexture": {
          "index": 2
        },
        "metallicFactor": 0,
        "roughnessFactor": 0.5
      }
    }
  ],
  "meshes": [
    {
      "name": "Cube",
      "primitives": [
        {
          "attributes": {
            "POSITION": 0,
            "NORMAL": 1,
            "TEXCOORD_0": 2
          },
          "indices": 3,
          "material": 0
        }
      ]
    },
    {
      "name": "Cube.001",
      "primitives": [
        {
          "attributes": {
            "POSITION": 4,
            "NORMAL": 5,
            "TEXCOORD_0": 6
          },
          "indices": 7,
          "material": 1
        }
      ]
    },
    {
      "name": "Cube.002",
      "primitives": [
        {
          "attributes": {
            "POSITION": 8,
            "NORMAL": 9,
            "TEXCOORD_0": 10
          },
          "indices": 7,
          "material": 2
        }
      ]
    }
  ],
  "textures": [
    {
      "sampler": 0,
      "source": 0
    },
    {
      "sampler": 0,
      "source": 0
    },
    {
      "sampler": 0,
      "source": 0
    }
  ],
  "images": [
    {
      "bufferView": 4,
      "mimeType": "image/jpeg",
      "name": "cashregister"
    }
  ],
  "accessors": [
    {
      "bufferView": 0,
      "componentType": 5126,
      "count": 24,
      "max": [1, 1, 1],
      "min": [-1, -1, -1],
      "type": "VEC3"
    },
    {
      "bufferView": 1,
      "componentType": 5126,
      "count": 24,
      "type": "VEC3"
    },
    {
      "bufferView": 2,
      "componentType": 5126,
      "count": 24,
      "type": "VEC2"
    },
    {
      "bufferView": 3,
      "componentType": 5123,
      "count": 36,
      "type": "SCALAR"
    },
    {
      "bufferView": 5,
      "componentType": 5126,
      "count": 24,
      "max": [1, 1, 1],
      "min": [-1, -1.8014839887619019, -1],
      "type": "VEC3"
    },
    {
      "bufferView": 6,
      "componentType": 5126,
      "count": 24,
      "type": "VEC3"
    },
    {
      "bufferView": 7,
      "componentType": 5126,
      "count": 24,
      "type": "VEC2"
    },
    {
      "bufferView": 8,
      "componentType": 5123,
      "count": 36,
      "type": "SCALAR"
    },
    {
      "bufferView": 9,
      "componentType": 5126,
      "count": 24,
      "max": [1.5025807619094849, 1.0336898565292358, 0.9999999403953552],
      "min": [-1.000152587890625, -0.9663102030754089, -0.9999999403953552],
      "type": "VEC3"
    },
    {
      "bufferView": 10,
      "componentType": 5126,
      "count": 24,
      "type": "VEC3"
    },
    {
      "bufferView": 11,
      "componentType": 5126,
      "count": 24,
      "type": "VEC2"
    }
  ],
  "bufferViews": [
    {
      "buffer": 0,
      "byteLength": 288,
      "byteOffset": 0
    },
    {
      "buffer": 0,
      "byteLength": 288,
      "byteOffset": 288
    },
    {
      "buffer": 0,
      "byteLength": 192,
      "byteOffset": 576
    },
    {
      "buffer": 0,
      "byteLength": 72,
      "byteOffset": 768
    },
    {
      "buffer": 0,
      "byteLength": 10732,
      "byteOffset": 840
    },
    {
      "buffer": 0,
      "byteLength": 288,
      "byteOffset": 11572
    },
    {
      "buffer": 0,
      "byteLength": 288,
      "byteOffset": 11860
    },
    {
      "buffer": 0,
      "byteLength": 192,
      "byteOffset": 12148
    },
    {
      "buffer": 0,
      "byteLength": 72,
      "byteOffset": 12340
    },
    {
      "buffer": 0,
      "byteLength": 288,
      "byteOffset": 12412
    },
    {
      "buffer": 0,
      "byteLength": 288,
      "byteOffset": 12700
    },
    {
      "buffer": 0,
      "byteLength": 192,
      "byteOffset": 12988
    }
  ],
  "samplers": [
    {
      "magFilter": 9729,
      "minFilter": 9987
    }
  ],
  "buffers": [
    {
      "byteLength": 13180,
      "uri": "data:application/octet-stream;base64,"
    }
  ]
}
