{
    "asset" : {
        "generator" : "Khronos glTF Blender I/O v1.6.16",
        "version" : "2.0"
    },
    "scene" : 0,
    "scenes" : [
        {
            "name" : "Scene",
            "nodes" : [
                0,
                1
            ]
        }
    ],
    "nodes" : [
        {
            "mesh" : 0,
            "name" : "Cylinder",
            "scale" : [
                1,
                1.1937685012817383,
                1
            ],
            "translation" : [
                0,
                1.2316970825195312,
                0
            ]
        },
        {
            "mesh" : 1,
            "name" : "Cylinder.001",
            "rotation" : [
                0,
                0,
                -0.9999105930328369,
                0.013378655537962914
            ],
            "scale" : [
                0.8211419582366943,
                0.12763899564743042,
                0.8561057448387146
            ],
            "translation" : [
                0,
                1.0794737339019775,
                0.027144480496644974
            ]
        }
    ],
    "materials" : [
        {
            "doubleSided" : true,
            "name" : "Material.001",
            "pbrMetallicRoughness" : {
                "baseColorTexture" : {
                    "index" : 0
                },
                "metallicFactor" : 0,
                "roughnessFactor" : 0.5
            }
        },
        {
            "doubleSided" : true,
            "name" : "Material.002",
            "pbrMetallicRoughness" : {
                "baseColorTexture" : {
                    "index" : 1
                },
                "metallicFactor" : 0,
                "roughnessFactor" : 0.5
            }
        }
    ],
    "meshes" : [
        {
            "name" : "Cylinder.001",
            "primitives" : [
                {
                    "attributes" : {
                        "POSITION" : 0,
                        "NORMAL" : 1,
                        "TEXCOORD_0" : 2
                    },
                    "indices" : 3,
                    "material" : 0
                }
            ]
        },
        {
            "name" : "Cylinder.003",
            "primitives" : [
                {
                    "attributes" : {
                        "POSITION" : 4,
                        "NORMAL" : 5,
                        "TEXCOORD_0" : 6
                    },
                    "indices" : 3,
                    "material" : 1
                }
            ]
        }
    ],
    "textures" : [
        {
            "sampler" : 0,
            "source" : 0
        },
        {
            "sampler" : 0,
            "source" : 1
        }
    ],
    "images" : [
        {
            "bufferView" : 4,
            "mimeType" : "image/png",
            "name" : "trash"
        },
        {
            "bufferView" : 8,
            "mimeType" : "image/png",
            "name" : "trashpile"
        }
    ],
    "accessors" : [
        {
            "bufferView" : 0,
            "componentType" : 5126,
            "count" : 100,
            "max" : [
                1,
                1,
                1
            ],
            "min" : [
                -1,
                -1,
                -1
            ],
            "type" : "VEC3"
        },
        {
            "bufferView" : 1,
            "componentType" : 5126,
            "count" : 100,
            "type" : "VEC3"
        },
        {
            "bufferView" : 2,
            "componentType" : 5126,
            "count" : 100,
            "type" : "VEC2"
        },
        {
            "bufferView" : 3,
            "componentType" : 5123,
            "count" : 180,
            "type" : "SCALAR"
        },
        {
            "bufferView" : 5,
            "componentType" : 5126,
            "count" : 100,
            "max" : [
                1,
                1,
                1
            ],
            "min" : [
                -1,
                -1,
                -1
            ],
            "type" : "VEC3"
        },
        {
            "bufferView" : 6,
            "componentType" : 5126,
            "count" : 100,
            "type" : "VEC3"
        },
        {
            "bufferView" : 7,
            "componentType" : 5126,
            "count" : 100,
            "type" : "VEC2"
        }
    ],
    "bufferViews" : [
        {
            "buffer" : 0,
            "byteLength" : 1200,
            "byteOffset" : 0
        },
        {
            "buffer" : 0,
            "byteLength" : 1200,
            "byteOffset" : 1200
        },
        {
            "buffer" : 0,
            "byteLength" : 800,
            "byteOffset" : 2400
        },
        {
            "buffer" : 0,
            "byteLength" : 360,
            "byteOffset" : 3200
        },
        {
            "buffer" : 0,
            "byteLength" : 12612,
            "byteOffset" : 3560
        },
        {
            "buffer" : 0,
            "byteLength" : 1200,
            "byteOffset" : 16172
        },
        {
            "buffer" : 0,
            "byteLength" : 1200,
            "byteOffset" : 17372
        },
        {
            "buffer" : 0,
            "byteLength" : 800,
            "byteOffset" : 18572
        },
        {
            "buffer" : 0,
            "byteLength" : 124649,
            "byteOffset" : 19372
        }
    ],
    "samplers" : [
        {
            "magFilter" : 9729,
            "minFilter" : 9987
        }
    ],
    "buffers" : [
        {
            "byteLength" : 144024,
            "uri" : "data:application/octet-stream;base64,"
        }
    ]
}
